<svg width="8" height="14" viewBox="0 0 8 14" fill="none" xmlns="http://www.w3.org/2000/svg">
<path d="M6.93839 1.8966e-05C6.64265 1.8966e-05 6.40758 0.106181 6.20284 0.303337L0.38673 5.98296C0.12891 6.24078 0.0075834 6.50618 4.99105e-07 6.83225C4.99105e-07 7.15831 0.121327 7.4313 0.38673 7.68153L6.20284 13.3687C6.40758 13.5659 6.65024 13.6721 6.93839 13.6721C7.52986 13.6721 8 13.2019 8 12.618C8 12.3299 7.87867 12.0569 7.66635 11.8446L2.50995 6.83225L7.66635 1.82751C7.87867 1.61519 8 1.3422 8 1.05405C8 0.470162 7.52986 1.8966e-05 6.93839 1.8966e-05Z" fill="#7D8696"/>
</svg>
