<svg width="49" height="12" viewBox="0 0 49 12" fill="none" xmlns="http://www.w3.org/2000/svg">
<path opacity="0.35" d="M24.9928 2.68918C24.9928 1.48356 25.9701 0.506219 27.1758 0.506219H43.9677C45.1734 0.506219 46.1507 1.48356 46.1507 2.68918V8.7343C46.1507 9.93991 45.1734 10.9173 43.9677 10.9173H27.1758C25.9701 10.9173 24.9928 9.93991 24.9928 8.73429V2.68918Z" fill="#7D8696" stroke="#7D8696"/>
<path opacity="0.4" d="M47.662 3.69653V7.72661C48.4728 7.38529 49 6.59127 49 5.71157C49 4.83187 48.4728 4.03786 47.662 3.69653Z" fill="#7D8696"/>
<path d="M26.5041 3.36086C26.5041 2.61894 27.1055 2.0175 27.8474 2.0175H43.2961C44.038 2.0175 44.6394 2.61894 44.6394 3.36086V8.06261C44.6394 8.80453 44.038 9.40597 43.2961 9.40597H27.8474C27.1055 9.40597 26.5041 8.80453 26.5041 8.06261V3.36086Z" fill="#7D8696"/>
<path fill-rule="evenodd" clip-rule="evenodd" d="M7.69403 2.29445C9.92658 2.29455 12.0738 3.15239 13.6918 4.69067C13.8136 4.80943 14.0084 4.80793 14.1284 4.68731L15.2931 3.51187C15.3538 3.45069 15.3877 3.36782 15.3872 3.2816C15.3867 3.19537 15.3519 3.11291 15.2904 3.05244C11.0436 -1.01748 4.34379 -1.01748 0.0969964 3.05244C0.0354787 3.11286 0.000574286 3.1953 7.0232e-06 3.28153C-0.00056024 3.36775 0.0332564 3.45065 0.0939738 3.51187L1.259 4.68731C1.37893 4.80811 1.57383 4.80961 1.69559 4.69067C3.31382 3.15229 5.46125 2.29445 7.69403 2.29445ZM7.69402 6.11866C8.92066 6.11858 10.1035 6.57452 11.0128 7.39787C11.1358 7.51472 11.3295 7.51219 11.4494 7.39216L12.6127 6.21672C12.674 6.15507 12.708 6.07143 12.7071 5.98451C12.7062 5.8976 12.6705 5.81467 12.608 5.75427C9.83916 3.17867 5.55122 3.17867 2.78236 5.75427C2.71981 5.81467 2.68413 5.89764 2.68331 5.98458C2.68249 6.07152 2.7166 6.15516 2.77799 6.21672L3.94101 7.39216C4.06089 7.51219 4.25462 7.51472 4.3776 7.39787C5.28625 6.57506 6.46818 6.11917 7.69402 6.11866ZM10.0244 8.69182C10.0262 8.77898 9.99192 8.86301 9.9297 8.92407L7.91735 10.9549C7.85836 11.0146 7.77794 11.0482 7.69402 11.0482C7.6101 11.0482 7.52968 11.0146 7.47069 10.9549L5.458 8.92407C5.39582 8.86297 5.36162 8.77891 5.36346 8.69175C5.36531 8.60459 5.40303 8.52206 5.46774 8.46364C6.7529 7.37664 8.63514 7.37664 9.9203 8.46364C9.98496 8.52211 10.0226 8.60467 10.0244 8.69182Z" fill="#7D8696"/>
</svg>
