<svg width="24" height="24" viewBox="0 0 24 24" fill="none" xmlns="http://www.w3.org/2000/svg">
<path d="M17.7627 8.44068H4.88136C4.11745 8.43978 3.38508 8.13592 2.84492 7.59576C2.30476 7.05559 2.0009 6.32323 2 5.55932C2.0009 4.61561 2.37618 3.7108 3.04349 3.04349C3.7108 2.37618 4.61561 2.0009 5.55932 2L15.0508 2C15.9946 2.0009 16.8994 2.37618 17.5667 3.04349C18.234 3.7108 18.6093 4.61561 18.6102 5.55932V7.59322C18.6102 7.81798 18.5209 8.03354 18.362 8.19246C18.203 8.35139 17.9875 8.44068 17.7627 8.44068ZM5.55932 3.69492C5.06513 3.69581 4.59143 3.89253 4.24198 4.24198C3.89253 4.59143 3.69581 5.06513 3.69492 5.55932C3.69491 5.87399 3.81991 6.17576 4.04242 6.39826C4.26492 6.62076 4.56669 6.74576 4.88136 6.74576H16.9153V5.55932C16.9144 5.06513 16.7176 4.59143 16.3682 4.24198C16.0187 3.89253 15.545 3.69581 15.0508 3.69492H5.55932Z" fill="#7D8696"/>
<path d="M18.4407 22H5.55932C4.61561 21.9991 3.7108 21.6238 3.04349 20.9565C2.37618 20.2892 2.0009 19.3844 2 18.4406L2 5.55928C2 5.33452 2.08929 5.11897 2.24821 4.96004C2.40714 4.80111 2.6227 4.71182 2.84746 4.71182C3.07222 4.71182 3.28777 4.80111 3.4467 4.96004C3.60563 5.11897 3.69492 5.33452 3.69492 5.55928V18.4406C3.69581 18.9348 3.89253 19.4085 4.24198 19.758C4.59143 20.1074 5.06513 20.3041 5.55932 20.305H18.4407C18.9349 20.3041 19.4086 20.1074 19.758 19.758C20.1075 19.4085 20.3042 18.9348 20.3051 18.4406V10.305C20.3042 9.81085 20.1075 9.33715 19.758 8.9877C19.4086 8.63825 18.9349 8.44153 18.4407 8.44064H15.2475C15.0227 8.44064 14.8071 8.35135 14.6482 8.19242C14.4893 8.03349 14.4 7.81794 14.4 7.59318C14.4 7.36842 14.4893 7.15286 14.6482 6.99394C14.8071 6.83501 15.0227 6.74572 15.2475 6.74572H18.4407C19.3844 6.74662 20.2892 7.12191 20.9565 7.78921C21.6238 8.45652 21.9991 9.36133 22 10.305V18.4406C21.9991 19.3844 21.6238 20.2892 20.9565 20.9565C20.2892 21.6238 19.3844 21.9991 18.4407 22Z" fill="#7D8696"/>
<path d="M21.1523 17.9322H15.7286C14.7846 17.9322 13.8793 17.5572 13.2118 16.8897C12.5443 16.2222 12.1693 15.3169 12.1693 14.3729C12.1693 13.4289 12.5443 12.5236 13.2118 11.8561C13.8793 11.1886 14.7846 10.8136 15.7286 10.8136H21.1523C21.3771 10.8136 21.5926 10.9029 21.7516 11.0618C21.9105 11.2207 21.9998 11.4363 21.9998 11.661V17.0848C21.9998 17.3095 21.9105 17.5251 21.7516 17.684C21.5926 17.843 21.3771 17.9322 21.1523 17.9322ZM15.7286 12.5085C15.2341 12.5085 14.7599 12.7049 14.4103 13.0546C14.0606 13.4042 13.8642 13.8784 13.8642 14.3729C13.8642 14.8674 14.0606 15.3416 14.4103 15.6912C14.7599 16.0409 15.2341 16.2373 15.7286 16.2373H20.3049V12.5085H15.7286Z" fill="#7D8696"/>
<path d="M17.0848 15.3899C17.6464 15.3899 18.1017 14.9346 18.1017 14.373C18.1017 13.8113 17.6464 13.356 17.0848 13.356C16.5231 13.356 16.0678 13.8113 16.0678 14.373C16.0678 14.9346 16.5231 15.3899 17.0848 15.3899Z" fill="#7D8696"/>
</svg>
