<svg width="24" height="24" viewBox="0 0 24 24" fill="none" xmlns="http://www.w3.org/2000/svg">
<path d="M18.3636 4.27591V19.7241C18.3636 19.9786 18.5673 20.1818 18.8191 20.1818H19.7264C19.9791 20.1818 20.1818 19.9782 20.1818 19.7241V4.27591C20.1818 4.02136 19.9782 3.81818 19.7264 3.81818H18.8191C18.5664 3.81818 18.3636 4.02182 18.3636 4.27591ZM16.5455 4.27591C16.5451 3.97712 16.6036 3.6812 16.7177 3.40506C16.8319 3.12892 16.9993 2.87798 17.2104 2.6666C17.4216 2.45522 17.6724 2.28755 17.9484 2.17317C18.2244 2.05878 18.5203 1.99994 18.8191 2H19.7264C20.0251 2 20.321 2.05888 20.597 2.17329C20.873 2.28769 21.1237 2.45537 21.3349 2.66674C21.546 2.8781 21.7135 3.12902 21.8276 3.40513C21.9417 3.68124 22.0003 3.97714 22 4.27591V19.7241C22.0004 20.0229 21.9418 20.3188 21.8277 20.5949C21.7136 20.8711 21.5462 21.122 21.335 21.3334C21.1238 21.5448 20.8731 21.7125 20.597 21.8268C20.321 21.9412 20.0251 22.0001 19.7264 22H18.8191C18.5203 22 18.2245 21.9411 17.9485 21.8267C17.6725 21.7123 17.4217 21.5446 17.2106 21.3333C16.9994 21.1219 16.832 20.871 16.7179 20.5949C16.6037 20.3188 16.5452 20.0229 16.5455 19.7241V4.27591ZM2 9.72591C1.99994 9.42742 2.05873 9.13185 2.17299 8.8561C2.28726 8.58035 2.45477 8.32983 2.66594 8.11887C2.87711 7.90792 3.12779 7.74066 3.40365 7.62667C3.67952 7.51268 3.97515 7.45419 4.27364 7.45455H5.18091C5.78333 7.45491 6.36102 7.69419 6.78725 8.11991C7.21348 8.54563 7.45346 9.12303 7.45455 9.72545V19.7291C7.45455 20.0275 7.39572 20.3231 7.28142 20.5988C7.16713 20.8745 6.99961 21.1249 6.78845 21.3358C6.57728 21.5467 6.32662 21.714 6.05079 21.8279C5.77495 21.9419 5.47936 22.0004 5.18091 22H4.27364C3.67121 21.9996 3.09353 21.7604 2.66729 21.3346C2.24106 20.9089 2.00108 20.3315 2 19.7291V9.72545V9.72591ZM3.81818 9.72591V19.7291C3.81818 19.9764 4.02364 20.1818 4.27364 20.1818H5.18091C5.24059 20.1822 5.29976 20.1707 5.355 20.1481C5.41024 20.1256 5.46047 20.0923 5.5028 20.0502C5.54513 20.0081 5.57872 19.9581 5.60164 19.903C5.62456 19.8479 5.63636 19.7888 5.63636 19.7291V9.72545C5.63636 9.47818 5.43091 9.27273 5.18091 9.27273H4.27364C4.21395 9.27237 4.15479 9.28381 4.09955 9.3064C4.0443 9.32899 3.99407 9.36228 3.95175 9.40436C3.90942 9.44643 3.87582 9.49646 3.8529 9.55157C3.82998 9.60668 3.81818 9.66577 3.81818 9.72545V9.72591ZM9.27273 15.1859C9.27231 14.8871 9.33081 14.5911 9.44488 14.3148C9.55896 14.0386 9.72636 13.7876 9.93753 13.5761C10.1487 13.3647 10.3995 13.1969 10.6755 13.0825C10.9516 12.968 11.2475 12.9091 11.5464 12.9091H12.4536C12.7526 12.9089 13.0486 12.9677 13.3248 13.0821C13.6009 13.1966 13.8518 13.3644 14.063 13.5759C14.2742 13.7875 14.4416 14.0386 14.5556 14.3149C14.6696 14.5913 14.7279 14.8874 14.7273 15.1864V19.7227C14.7277 20.0216 14.6693 20.3177 14.5552 20.5939C14.4412 20.8702 14.2738 21.1213 14.0626 21.3328C13.8515 21.5443 13.6006 21.7121 13.3246 21.8266C13.0485 21.9411 12.7525 22 12.4536 22H11.5464C11.2474 22.0002 10.9514 21.9414 10.6752 21.8269C10.3991 21.7125 10.1482 21.5447 9.93697 21.3332C9.72576 21.1216 9.55837 20.8705 9.44439 20.5941C9.3304 20.3178 9.27207 20.0217 9.27273 19.7227V15.1864V15.1859ZM11.0909 15.1859V19.7232C11.0903 19.7833 11.1017 19.843 11.1243 19.8987C11.1469 19.9544 11.1804 20.005 11.2228 20.0477C11.2651 20.0904 11.3156 20.1242 11.3711 20.1472C11.4267 20.1702 11.4862 20.182 11.5464 20.1818H12.4536C12.7059 20.1818 12.9091 19.9777 12.9091 19.7227V15.1864C12.9098 15.1262 12.8985 15.0665 12.8758 15.0107C12.8532 14.955 12.8198 14.9043 12.7774 14.8615C12.735 14.8188 12.6846 14.785 12.629 14.7619C12.5734 14.7389 12.5138 14.7271 12.4536 14.7273H11.5464C11.2941 14.7273 11.0909 14.9314 11.0909 15.1864V15.1859Z" fill="#7D8696"/>
</svg>
