<svg width="18" height="20" viewBox="0 0 18 20" fill="none" xmlns="http://www.w3.org/2000/svg">
<path fill-rule="evenodd" clip-rule="evenodd" d="M1.80011 9.93618H1.06266e-05L0 6.33608C0 5.46094 0.34757 4.62159 0.966585 4.00279C1.58539 3.38379 2.42474 3.0362 3.30009 3.0362H6.52797L4.75803 1.27189L6.02992 0L9.33001 3.30009C9.50412 3.47397 9.59934 3.7117 9.59368 3.95757C9.58803 4.20344 9.48193 4.43635 9.30009 4.60209L6 7.60207L4.80011 6.27013L6.3721 4.83603H3.30011C2.90229 4.83603 2.5206 4.99423 2.23935 5.27548C1.9581 5.55673 1.80011 5.93822 1.80011 6.33603V9.93618ZM12.1104 1.34645C12.7574 0.699442 13.6348 0.335952 14.5499 0.335938C15.4646 0.336795 16.3417 0.70049 16.9885 1.34731C17.6353 1.99413 17.999 2.87114 17.9998 3.78603C17.9998 4.70092 17.6364 5.57858 16.9893 6.22539C16.3423 6.87242 15.4649 7.23591 14.55 7.23591C13.6349 7.23591 12.7574 6.87243 12.1104 6.22539C11.4634 5.57858 11.0999 4.70092 11.0999 3.78603C11.0999 2.87093 11.4634 1.99347 12.1104 1.34645ZM16.1999 12.9364C16.1999 13.3342 16.0419 13.7157 15.7607 13.997C15.4794 14.2782 15.0977 14.4364 14.6999 14.4364H11.472L13.2361 12.6723L11.9642 11.4004L8.66415 14.7005L8.66394 14.7003C8.49548 14.8692 8.40089 15.0979 8.40089 15.3363C8.40089 15.5748 8.49548 15.8035 8.66394 15.9724L11.964 19.2725L13.2359 18.0006L11.472 16.2363H14.6999C15.5753 16.2363 16.4146 15.8887 17.0334 15.2697C17.6524 14.6509 18 13.8116 18 12.9364V8.73634H16.1999L16.1999 12.9364ZM3.45 12.0362C2.53511 12.0362 1.65767 12.3997 1.01064 13.0467C0.363603 13.6935 0.000122071 14.5712 0.000122071 15.4861C0.000122071 16.4012 0.363614 17.2786 1.01064 17.9257C1.65766 18.5727 2.53511 18.9362 3.45 18.9362C4.3651 18.9362 5.24254 18.5727 5.88958 17.9257C6.53661 17.2786 6.90009 16.4012 6.90009 15.4861C6.89925 14.5714 6.53556 13.6944 5.88872 13.0475C5.2419 12.4007 4.36489 12.037 3.45 12.0362V12.0362Z" fill="#1F62F1"/>
</svg>
