<svg width="274" height="35" viewBox="0 0 274 35" fill="none" xmlns="http://www.w3.org/2000/svg">
<rect x="32" y="11" width="7" height="24" fill="#333A47"/>
<rect x="11" y="23" width="7" height="12" fill="#333A47"/>
<rect x="53" y="3" width="7" height="32" fill="#333A47"/>
<rect y="17" width="7" height="18" fill="#333A47"/>
<rect x="42" y="14" width="7" height="21" fill="#333A47"/>
<rect x="22" y="17" width="7" height="18" fill="#333A47"/>
<rect x="64" y="14" width="7" height="21" fill="#333A47"/>
<rect x="160" width="7" height="35" fill="#333A47"/>
<rect x="203" y="14" width="7" height="21" fill="#333A47"/>
<rect x="181" y="14" width="7" height="21" fill="#333A47"/>
<rect x="224" y="14" width="7" height="21" fill="#333A47"/>
<rect x="171" y="23" width="7" height="12" fill="#333A47"/>
<rect x="213" y="17" width="7" height="18" fill="#333A47"/>
<rect x="192" y="6" width="7" height="29" fill="#333A47"/>
<rect x="235" y="3" width="7" height="32" fill="#333A47"/>
<rect x="75" y="11" width="7" height="24" fill="#333A47"/>
<rect x="118" width="7" height="35" fill="#333A47"/>
<rect x="96" y="23" width="7" height="12" fill="#333A47"/>
<rect x="139" y="26" width="7" height="9" fill="#333A47"/>
<rect x="85" y="17" width="7" height="18" fill="#333A47"/>
<rect x="128" y="17" width="7" height="18" fill="#333A47"/>
<rect x="107" y="14" width="7" height="21" fill="#333A47"/>
<rect x="150" y="6" width="7" height="29" fill="#333A47"/>
<rect x="246" y="6" width="7" height="29" fill="#333A47"/>
<rect x="267" width="7" height="35" fill="#333A47"/>
<rect x="256" y="11" width="7" height="24" fill="#333A47"/>
</svg>
