<svg width="59" height="20" viewBox="0 0 59 20" fill="none" xmlns="http://www.w3.org/2000/svg">
<path d="M58.8931 7.24247C58.6138 6.3975 57.8954 5.79395 57.0375 5.6532L52.927 5.04961L51.0912 1.30761C50.6922 0.502956 49.914 0 49.0161 0C48.1381 0 47.34 0.502956 46.941 1.30761L45.1053 5.04961L40.9948 5.6532C40.1168 5.77388 39.3985 6.39753 39.1191 7.24247C38.8398 8.08743 39.0593 9.01291 39.6977 9.63657L42.6709 12.5537L41.9724 16.6779C41.8327 17.5632 42.172 18.4282 42.8903 18.9513C43.2894 19.253 43.7683 19.3939 44.2471 19.3939C44.6263 19.3939 44.9854 19.2933 45.3245 19.1323L49.016 17.1809L52.6874 19.1323C53.0266 19.3134 53.3859 19.3939 53.7648 19.3939C54.2637 19.3939 54.7226 19.233 55.1216 18.9513C55.84 18.4283 56.199 17.5431 56.0396 16.6779L55.3411 12.5537L58.3142 9.63657C58.9329 9.01294 59.1524 8.08743 58.893 7.24247H58.8931ZM53.366 12.5134L54.1242 16.9998C54.1441 17.1407 54.0843 17.2815 53.9646 17.3821C53.8449 17.4625 53.6852 17.4827 53.5655 17.4022L49.5748 15.2897C49.2157 15.1087 48.7767 15.1087 48.4175 15.2897L44.4268 17.4022C44.3071 17.4625 44.1474 17.4625 44.0278 17.3821C43.9081 17.3017 43.8482 17.1608 43.8681 16.9998L44.6663 12.5134C44.7262 12.1111 44.6065 11.6886 44.3072 11.4069L41.0746 8.22833C40.9748 8.12771 40.9349 7.96675 40.9748 7.84605C41.0148 7.70515 41.1345 7.60467 41.2741 7.58447L45.7437 6.92057C46.1427 6.86022 46.502 6.59864 46.6815 6.23658L48.6769 2.15257C48.7367 2.01168 48.8765 1.93127 49.0161 1.93127C49.1558 1.93127 49.2954 2.01168 49.3553 2.15257L51.3506 6.23658C51.5302 6.59864 51.8694 6.86021 52.2884 6.92057L56.7581 7.58447C56.8978 7.60454 57.0175 7.70516 57.0573 7.84605C57.0972 7.98695 57.0573 8.1277 56.9575 8.22833L53.7251 11.407C53.4258 11.6887 53.306 12.1111 53.3658 12.5134L53.366 12.5134Z" fill="#7D8696"/>
<path d="M8.70996 11.2902C8.89931 11.4779 9.00578 11.7335 9.00578 12.0002C9.00578 12.2667 8.8993 12.5224 8.70996 12.7102L3.41014 18.0001H6.00022C6.35748 18.0001 6.68762 18.1906 6.86625 18.5C7.04489 18.8093 7.04489 19.1907 6.86625 19.5001C6.68762 19.8095 6.35749 20 6.00022 20H0.99998C0.869229 19.9985 0.740153 19.9714 0.619949 19.92C0.375693 19.8185 0.181512 19.6243 0.0800246 19.38C0.0286293 19.2598 0.0015086 19.1308 0 19V13.9998C0 13.6426 0.190517 13.3124 0.499896 13.1338C0.809275 12.9552 1.19064 12.9552 1.50003 13.1338C1.80942 13.3124 1.99993 13.6426 1.99993 13.9998V16.5899L7.28989 11.2897V11.2898C7.47773 11.1005 7.73338 10.994 7.99987 10.994C8.26657 10.994 8.52223 11.1005 8.70986 11.2898L8.70996 11.2902ZM19.9203 0.619944C19.8189 0.37569 19.6247 0.181511 19.3804 0.0800239C19.2602 0.028629 19.1311 0.00150859 19.0004 0H14.0001C13.6429 0 13.3127 0.190515 13.1341 0.499891C12.9555 0.809268 12.9555 1.19063 13.1341 1.50002C13.3127 1.80941 13.6429 1.99991 14.0001 1.99991H16.5902L11.29 7.28983H11.2901C11.1008 7.47766 10.9943 7.73332 10.9943 7.9998C10.9943 8.26649 11.1008 8.52215 11.2901 8.70978C11.4778 8.89913 11.7335 9.0056 12.0001 9.0056C12.2666 9.0056 12.5223 8.89912 12.7101 8.70978L18.0001 3.41001V6.00007C18.0001 6.35732 18.1906 6.68746 18.5 6.86609C18.8093 7.04472 19.1907 7.04472 19.5001 6.86609C19.8095 6.68746 20 6.35733 20 6.00007V0.999868C19.9985 0.869118 19.9714 0.740044 19.92 0.619841L19.9203 0.619944Z" fill="#7D8696"/>
</svg>
