<svg width="19" height="18" viewBox="0 0 19 18" fill="none" xmlns="http://www.w3.org/2000/svg">
<path d="M3.37547 18H14.6267C15.522 18 16.3804 17.6445 17.0134 17.0113C17.6465 16.3783 18.0021 15.52 18.0021 14.6246V7.2214C18.0023 5.99823 17.3911 4.85612 16.3736 4.17783L11.0292 0.613947H11.029C10.4285 0.213684 9.72289 0 9.00105 0C8.27921 0 7.57365 0.213669 6.97306 0.613947L1.62871 4.17783H1.62852C0.610983 4.85612 -0.000200866 5.99823 4.952e-08 7.2214V14.6246C4.952e-08 15.5199 0.355525 16.3783 0.988705 17.0113C1.62169 17.6444 2.48005 18 3.37538 18H3.37547ZM2.25044 7.2214C2.25064 6.75089 2.48609 6.3118 2.8777 6.05122L8.22205 2.48733C8.45318 2.33311 8.72474 2.2509 9.00255 2.2509C9.28037 2.2509 9.55196 2.33311 9.78306 2.48733L15.1274 6.05122H15.1276C15.518 6.31237 15.7523 6.75146 15.7519 7.2214V14.6246C15.7519 14.9231 15.6334 15.2091 15.4225 15.4202C15.2114 15.6312 14.9253 15.7497 14.6269 15.7497H3.37563C3.0772 15.7497 2.79112 15.6312 2.58001 15.4202C2.36909 15.2091 2.25058 14.9231 2.25058 14.6246L2.25044 7.2214Z" fill="#7D8696"/>
<rect x="5" y="14" width="8" height="1" fill="#7D8696"/>
</svg>
